<?xml version="1.0" encoding="UTF-8" standalone="no"?>
<!-- Created with Inkscape (http://www.inkscape.org/) -->

<svg
   width="210mm"
   height="297mm"
   viewBox="0 0 210 297"
   version="1.1"
   id="svg5"
   inkscape:version="1.3 (0e150ed6c4, 2023-07-21)"
   sodipodi:docname="Pokal.svg"
   xmlns:inkscape="http://www.inkscape.org/namespaces/inkscape"
   xmlns:sodipodi="http://sodipodi.sourceforge.net/DTD/sodipodi-0.dtd"
   xmlns="http://www.w3.org/2000/svg"
   xmlns:svg="http://www.w3.org/2000/svg">
  <sodipodi:namedview
     id="namedview7"
     pagecolor="#ffffff"
     bordercolor="#666666"
     borderopacity="1.0"
     inkscape:pageshadow="2"
     inkscape:pageopacity="0.0"
     inkscape:pagecheckerboard="0"
     inkscape:document-units="mm"
     showgrid="false"
     inkscape:zoom="0.98142812"
     inkscape:cx="777.4385"
     inkscape:cy="534.42528"
     inkscape:window-width="1920"
     inkscape:window-height="1017"
     inkscape:window-x="-8"
     inkscape:window-y="-8"
     inkscape:window-maximized="1"
     inkscape:current-layer="layer1"
     inkscape:showpageshadow="2"
     inkscape:deskcolor="#d1d1d1" />
  <defs
     id="defs2" />
  <g
     inkscape:label="Ebene 1"
     inkscape:groupmode="layer"
     id="layer1">
    <path
       style="fill:none;stroke-width:0.165;stroke:#000000;stroke-opacity:1;stroke-miterlimit:4;stroke-dasharray:none"
       d="m 168.99177,91.033244 c -0.28892,-0.28892 -6.70876,-0.85361 -7.54929,-0.66404 -1.02116,0.23031 -8.62591,-0.94666 -8.7785,-1.35862 -0.0485,-0.13096 -0.29818,-0.23812 -0.55483,-0.23812 -0.25664,0 -0.72233,-0.22176 -1.03485,-0.49281 -0.34378,-0.29816 -1.77062,-0.73943 -3.61236,-1.11717 -1.67427,-0.34339 -3.04414,-0.69426 -3.04414,-0.7797 0,-0.0855 0.91154,-0.0577 2.02563,0.0617 1.1141,0.11936 2.08644,0.15622 2.16077,0.0819 0.0743,-0.0743 -0.0931,-0.13696 -0.37199,-0.13919 -0.27891,-0.002 -0.68571,-0.12653 -0.90399,-0.27623 -0.79899,-0.54796 2.76961,0.0495 3.96875,0.66442 0.65484,0.33582 1.66687,0.76271 2.24896,0.94864 0.58208,0.18593 1.17739,0.49402 1.32291,0.68465 0.33952,0.44476 4.08362,1.07354 4.32359,0.72609 0.0959,-0.13883 0.51948,-0.27726 0.94133,-0.30764 0.42185,-0.0304 0.91455,-0.17768 1.09491,-0.32736 0.18042,-0.14974 0.84697,-0.20626 1.48196,-0.12566 0.95387,0.12108 1.04412,0.0985 0.52032,-0.13011 -1.3026,-0.56857 -0.32256,-0.46918 2.75372,0.27926 1.74442,0.42441 3.4098,0.77499 3.70084,0.77908 0.29104,0.004 0.70101,0.11616 0.91104,0.24904 0.26621,0.16843 -0.11288,0.29758 -1.25163,0.42642 -1.67701,0.18973 -2.01193,0.63216 -0.50369,0.66538 0.46435,0.0102 1.08241,0.12092 1.37345,0.24599 0.45106,0.19383 0.40875,0.23013 -0.28663,0.24599 -0.44869,0.0102 -0.87002,-0.0356 -0.93628,-0.10188 z m -11.55023,-2.66 c -1.47194,-0.44599 -2.19586,-0.93617 -3.56532,-2.4142 -1.621,-1.7495 -1.56308,-1.98258 0.099,-0.39847 0.78253,0.74581 1.9275,1.595 2.54438,1.88708 1.61519,0.76478 3.50861,0.67913 3.50861,-0.1587 0,-0.20271 0.1744,-0.36857 0.38757,-0.36857 0.46597,0 1.02892,-0.96203 0.84437,-1.44296 -0.0742,-0.1933 0.17096,-0.48118 0.56114,-0.65896 0.54182,-0.24687 0.61165,-0.36588 0.32031,-0.54594 -0.3117,-0.19264 -0.29441,-0.3166 0.10586,-0.7589 0.26313,-0.29075 0.40528,-0.64698 0.31589,-0.79162 -0.0894,-0.14463 -0.0412,-0.33796 0.10709,-0.4296 0.18155,-0.1122 0.18272,-0.329 0.004,-0.66369 -0.1783,-0.33315 -0.1783,-0.55126 0,-0.66146 0.16938,-0.10468 0.17634,-0.33195 0.0192,-0.62562 -0.14277,-0.26677 -0.14945,-0.61879 -0.0159,-0.83497 0.13187,-0.21337 0.13116,-0.49403 -0.002,-0.65407 -0.12796,-0.15419 -0.19706,-0.60467 -0.15354,-1.00107 0.059,-0.53875 -0.0372,-0.72072 -0.38136,-0.72072 -0.25321,0 -0.60063,-0.16899 -0.77204,-0.37552 -0.24615,-0.2966 -0.21125,-0.4346 0.16604,-0.65662 0.40256,-0.23688 0.41795,-0.3203 0.0978,-0.53036 -0.28759,-0.18871 -0.30725,-0.33675 -0.0809,-0.60943 0.23978,-0.28892 0.15789,-0.35834 -0.41389,-0.3509 -0.57162,0.007 -0.70864,-0.10863 -0.6918,-0.58603 0.0116,-0.32742 -0.0905,-0.59531 -0.22674,-0.59531 -0.13627,0 -0.17922,-0.17859 -0.0955,-0.39688 0.11379,-0.29653 -0.0416,-0.39687 -0.61475,-0.39687 -0.59401,0 -0.78612,-0.13429 -0.85159,-0.59531 -0.0612,-0.43102 -0.29109,-0.61897 -0.83295,-0.68104 -0.52019,-0.0596 -0.70425,-0.20077 -0.60361,-0.46302 0.0864,-0.2252 -0.0182,-0.3773 -0.25941,-0.3773 -0.2223,0 -0.32765,-0.12383 -0.23411,-0.27519 0.11029,-0.17844 -0.0703,-0.21486 -0.51355,-0.1036 -0.42714,0.1072 -0.68363,0.0615 -0.68363,-0.12169 0,-1.03742 -3.03103,1.07814 -4.03273,2.81471 -0.399,0.69171 -0.72597,1.07905 -0.72662,0.86077 -0.003,-0.97942 1.69722,-3.15282 3.23274,-4.1327 1.80107,-1.14934 4.85566,-0.76621 7.04057,0.88309 1.46075,1.10265 3.16888,3.66955 3.77938,5.67946 0.72755,2.39531 0.62138,6.05246 -0.23081,7.95071 -1.55159,3.45613 -4.36201,5.14658 -7.15129,4.30147 z m -4.54535,-1.19727 c -1.72896,-0.62173 -3.25315,-2.02213 -4.16578,-3.82747 -0.36782,-0.7276 -0.86355,-1.5486 -1.10162,-1.82443 -0.40883,-0.47368 -0.40348,-0.48602 0.0963,-0.22223 0.29104,0.15361 0.90596,0.70671 1.36648,1.22912 0.86363,0.97969 1.25631,1.15064 1.55031,0.67493 0.0935,-0.1512 -0.20829,-0.59768 -0.67053,-0.99219 -2.87517,-2.45387 -2.91095,-2.50036 -3.17009,-4.11848 -0.30595,-1.9104 -0.59851,-2.28144 -1.82055,-2.30892 l -0.95979,-0.0216 0.90398,-0.39403 c 0.843,-0.36746 0.95009,-0.35683 1.5875,0.15762 1.21784,0.98291 1.87948,1.22647 2.15615,0.7937 0.35182,-0.5503 -0.48557,-1.15638 -2.54433,-1.84148 -1.7296,-0.57558 -3.29392,-1.62352 -3.29392,-2.20662 0,-0.61267 -1.3272,-2.25127 -1.91498,-2.36428 -0.51,-0.0981 -0.48935,-0.12043 0.13952,-0.15113 0.54087,-0.0264 1.0197,0.25129 1.7921,1.03929 0.80939,0.82574 1.22146,1.05602 1.77546,0.99218 0.55209,-0.0636 0.7401,-0.24371 0.80096,-0.76723 0.10876,-0.93563 -0.33283,-1.23319 -3.46519,-2.335 l -2.69975,-0.94964 -1.01154,-1.98438 c -0.55635,-1.0914 -1.10502,-2.01843 -1.21925,-2.06006 -0.11424,-0.0416 -0.43295,-0.2462 -0.70825,-0.45461 -0.40305,-0.30511 -0.42067,-0.38055 -0.0905,-0.38733 0.60982,-0.0125 2.49203,1.2841 2.77936,1.91464 0.68494,1.50308 2.7637,1.9439 2.7637,0.58607 0,-1.24055 -1.75146,-2.40046 -4.94674,-3.27597 -1.0501,-0.28773 -2.20192,-1.32813 -2.19295,-1.98081 0.003,-0.21347 0.0578,-0.21456 0.19843,-0.004 0.34289,0.51352 1.26468,0.87004 3.37829,1.30662 3.57444,0.73832 4.33653,1.23045 6.02181,3.88868 0.59896,0.94476 1.58811,1.57995 2.13409,1.37044 0.52868,-0.20287 0.61593,-2.18492 0.10343,-2.34942 -2.94725,-0.94599 -3.60437,-1.29239 -4.06135,-2.14096 -0.26373,-0.48971 -0.39989,-0.97 -0.30258,-1.06731 0.0973,-0.0973 0.31799,0.13267 0.4904,0.51107 0.30004,0.65852 0.87493,0.94343 2.74905,1.36238 0.43656,0.0976 1.34911,0.41622 2.02788,0.70807 1.27082,0.54639 1.32086,0.62098 2.10028,3.13077 0.288,0.92737 0.58747,1.30719 1.35442,1.71786 0.94712,0.50713 1.00261,0.50912 1.45521,0.0522 0.45159,-0.45587 0.41008,-0.53036 -1.03095,-1.85015 -1.5112,-1.38404 -2.3472,-2.56578 -1.81511,-2.56578 0.15064,0 0.27389,0.10936 0.27389,0.24301 0,0.55804 1.95119,1.37582 4.50344,1.88747 2.93056,0.58749 3.79653,0.93467 4.91365,1.96999 0.39289,0.36412 0.81602,0.66203 0.94029,0.66203 0.12428,0 0.22595,0.11299 0.22595,0.25109 0,0.13809 -0.44648,0.0639 -0.99219,-0.16489 -1.5361,-0.64401 -3.93948,-0.56769 -5.42082,0.17213 -1.81073,0.90432 -2.51387,1.78218 -3.38926,4.2314 -0.9573,2.67843 -0.98862,4.15226 -0.15282,7.19013 0.64959,2.36107 1.56009,3.94818 3.43123,5.98108 1.17197,1.27328 1.12513,1.30475 -0.87275,0.58632 z m 5.27995,-0.2488 c 0,-0.14925 -0.26789,-0.27399 -0.59532,-0.27718 -0.77919,-0.008 -2.84427,-0.94974 -2.84427,-1.29763 0,-0.1745 0.21966,-0.18745 0.61703,-0.0364 0.54681,0.2079 2.19182,0.37776 2.97413,0.30711 0.15612,-0.0141 0.69191,-0.88884 1.19062,-1.94387 0.77589,-1.64135 0.89855,-2.16338 0.84982,-3.61671 -0.0313,-0.93417 -0.15163,-1.76761 -0.26736,-1.85209 -0.11573,-0.0845 -0.501,-0.80844 -0.85614,-1.6088 -0.35515,-0.80036 -0.81644,-1.66092 -1.02509,-1.91234 -0.54791,-0.66023 -2.93462,-1.79183 -3.77924,-1.79183 -0.8477,0 -2.1989,1.05778 -2.77549,2.17277 -0.56346,1.08962 -0.75438,0.74792 -0.25282,-0.45248 0.22584,-0.54052 0.34692,-1.0858 0.26908,-1.21175 -0.22706,-0.3674 0.68511,-1.55892 1.52656,-1.99405 2.27332,-1.17558 6.46069,1.93452 7.78379,5.78128 0.96415,2.80314 0.51008,7.18702 -0.90654,8.75237 -0.59594,0.6585 -1.90876,1.33362 -1.90876,0.98157 z m -2.4474,-2.14465 c -0.71972,-0.4192 -0.45735,-3.2861 0.30073,-3.2861 0.38882,0 1.58671,2.7382 1.41857,3.24263 -0.13156,0.39469 -1.07534,0.41855 -1.7193,0.0435 z m 2.07338,-1.76474 c -0.94143,-1.4457 -1.00985,-2.4474 -0.16718,-2.4474 0.50535,0 1.86411,1.13712 1.86411,1.56004 0,0.49696 -0.60015,1.87954 -0.81588,1.87954 -0.12922,0 -0.52569,-0.44648 -0.88105,-0.99218 z m -4.10588,-0.30543 c -0.30096,-0.42265 -0.54719,-0.94398 -0.54719,-1.15853 0,-0.39172 1.48495,-1.17419 1.74149,-0.91765 0.20976,0.20976 -0.19283,2.84463 -0.43464,2.84463 -0.11687,0 -0.45871,-0.34581 -0.75966,-0.76845 z m -1.2863,-0.19778 c -0.33376,-0.38064 -0.78647,-1.03946 -1.00602,-1.46404 -0.4965,-0.96012 -0.78127,-3.65515 -0.38623,-3.65515 0.15361,0 0.27928,0.34222 0.27928,0.76048 0,1.01251 0.66177,2.84485 1.46925,4.06817 0.75223,1.1396 0.53996,1.3127 -0.35628,0.29054 z m 3.61772,-1.91893 c 0.25432,-0.16108 0.31317,-0.50095 0.19401,-1.12043 -0.0941,-0.48906 -0.18889,-1.03291 -0.21072,-1.20855 -0.0474,-0.38125 -0.69475,-0.66912 -1.03369,-0.45965 -0.13239,0.0818 -0.24071,0.0227 -0.24071,-0.13143 0,-0.45345 1.20445,-0.32065 1.65817,0.18282 0.94654,1.05033 0.76563,2.98183 -0.27841,2.97251 -0.36128,-0.003 -0.37934,-0.0512 -0.0887,-0.23527 z m 2.0828,-0.24789 c -0.87984,-0.53099 -0.93279,-1.19147 -0.14004,-1.74674 0.96967,-0.67918 1.48396,-0.52221 1.67801,0.51217 0.31618,1.68539 -0.15897,2.06681 -1.53797,1.23457 z m -5.85914,-0.46047 c -0.24335,-0.63416 -0.19209,-2.22732 0.0717,-2.22732 0.69049,0 2.14945,0.85404 2.15303,1.26032 0.002,0.26803 0.085,0.34554 0.19844,0.18604 0.3413,-0.4801 0.98522,-0.27625 1.07268,0.33958 0.0643,0.45283 -0.0465,0.59531 -0.46302,0.59531 -0.30116,0 -0.54757,-0.112 -0.54757,-0.24889 0,-0.13689 -0.32742,-0.0781 -0.7276,0.13066 -0.95001,0.49557 -1.55851,0.48321 -1.75763,-0.0357 z m 4.5137,-2.13912 c -0.3171,-0.31711 -0.18434,-0.99794 0.37279,-1.91181 0.47624,-0.78116 0.59661,-0.84816 0.92815,-0.51662 0.20953,0.20952 0.48642,0.74871 0.61533,1.19818 0.20706,0.72198 0.15899,0.85158 -0.41242,1.11193 -0.73524,0.335 -1.24691,0.37526 -1.50385,0.11832 z m -3.80138,-0.38083 c -0.46578,-0.1347 -0.91605,-0.35685 -1.0006,-0.49366 -0.20688,-0.33473 0.55757,-2.12412 0.90744,-2.12412 0.351,0 1.87344,2.41985 1.69951,2.70128 -0.15715,0.25428 -0.49998,0.23645 -1.60635,-0.0835 z m 1.9552,-0.43497 c -0.0624,-0.10914 -0.27084,-0.82455 -0.4631,-1.58981 -0.42416,-1.68824 -0.19422,-2.05414 1.0829,-1.72321 1.30038,0.33696 1.47721,0.81853 0.83428,2.27199 -0.49187,1.11195 -1.1457,1.58005 -1.45408,1.04103 z"
       id="path908" />
  </g>
</svg>
