<?xml version="1.0" encoding="UTF-8" standalone="no"?>
<svg
   width="137.809mm"
   height="212.280mm"
   viewBox="21.635427 16.641012 137.808838 212.280014"
   version="1.1"
   id="svg244"
   sodipodi:docname="Verdrahtung.svg"
   inkscape:version="1.1 (c68e22c387, 2021-05-23)"
   xmlns:inkscape="http://www.inkscape.org/namespaces/inkscape"
   xmlns:sodipodi="http://sodipodi.sourceforge.net/DTD/sodipodi-0.dtd"
   xmlns="http://www.w3.org/2000/svg"
   xmlns:svg="http://www.w3.org/2000/svg">
  <defs
     id="defs248" />
  <sodipodi:namedview
     id="namedview246"
     pagecolor="#ffffff"
     bordercolor="#666666"
     borderopacity="1.0"
     inkscape:pageshadow="2"
     inkscape:pageopacity="0.0"
     inkscape:pagecheckerboard="0"
     inkscape:document-units="mm"
     showgrid="false"
     showborder="false"
     inkscape:snap-global="false"
     inkscape:zoom="0.97093658"
     inkscape:cx="159.12471"
     inkscape:cy="396.00939"
     inkscape:window-width="1920"
     inkscape:window-height="1017"
     inkscape:window-x="-8"
     inkscape:window-y="-8"
     inkscape:window-maximized="1"
     inkscape:current-layer="svg244" />
  <path
     transform="translate(21.5371,16.5399)"
     style="stroke:#0000ff;stroke-width:0.05mm;fill:none"
     d="M114.961731,170.459839L133.534241,170.459839C133.534241,170.459839,133.534241,170.459839,133.534241,170.459839L133.534241,133.84877C133.534241,133.84877,133.534241,133.84877,133.534241,133.84877L114.961731,133.84877C114.961731,133.84877,114.961731,133.84877,114.961731,133.84877L114.961731,170.459839C114.961731,170.459839,114.961731,170.459839,114.961731,170.459839z"
     id="path2" />
  <path
     transform="translate(21.5371,16.5399)"
     style="stroke:#ff0000;stroke-width:0.05mm;fill:none"
     d="M125.642403,147.963837C125.61438,148.120255,125.55542,148.269318,125.467468,148.401688L125.315552,148.585587L125.124329,148.734406L124.89801,148.840317L124.64032,148.903336C124.332092,148.947678,124.018013,148.927017,123.718323,148.842667C123.407043,148.740997,123.158997,148.502594,123.045227,148.195557C122.987244,148.041977,122.956238,147.879456,122.954224,147.715271C122.95343,147.54744,122.982239,147.380783,123.039253,147.222916C123.098267,147.075897,123.187134,146.942719,123.300232,146.831772L123.495239,146.686859L123.725456,146.580933C124.073357,146.476654,124.442688,146.466492,124.795776,146.551453C125.165947,146.636047,125.46637,146.905762,125.590149,147.264725C125.667183,147.489365,125.68512,147.730194,125.642151,147.963837"
     id="path4" />
  <path
     transform="translate(21.5371,16.5399)"
     style="stroke:#ff0000;stroke-width:0.05mm;fill:none"
     d="M125.286186,147.550476C125.220207,147.280502,125.011414,147.069138,124.742073,147.000793C124.456177,146.928421,124.156677,146.929016,123.870972,147.002487C123.653442,147.060181,123.472473,147.21048,123.375671,147.41362C123.215942,147.763779,123.361687,148.177704,123.705688,148.350464C123.823967,148.410492,123.952698,148.447357,124.084778,148.459091C124.306702,148.488739,124.532173,148.475021,124.748779,148.418716C124.96405,148.358643,125.143066,148.208847,125.240173,148.007584C125.302193,147.863586,125.318176,147.703949,125.286186,147.550476z"
     id="path6" />
  <path
     transform="translate(21.5371,16.5399)"
     style="stroke:#ff0000;stroke-width:0.05mm;fill:none"
     d="M125.650757,152.16304C125.622742,152.319458,125.563782,152.468521,125.47583,152.600891L125.323853,152.78479L125.132751,152.933609L124.906372,153.03952C124.521362,153.153076,124.112183,153.153885,123.726753,153.041824C123.415466,152.94017,123.167419,152.701767,123.053528,152.39473C122.994507,152.241318,122.964539,152.07869,122.962517,151.914444C122.962646,151.746689,122.991524,151.580185,123.047546,151.422089L123.156433,151.214844L123.308411,151.034851L123.503418,150.886017L123.733704,150.78009L124.007019,150.717056C124.166443,150.697754,124.327148,150.69223,124.487427,150.70047C124.780518,150.70787,125.062622,150.813187,125.288818,150.999664C125.485107,151.177063,125.614014,151.416977,125.653442,151.678619C125.681458,151.838989,125.68042,152.002991,125.653442,152.162994"
     id="path8" />
  <path
     transform="translate(21.5371,16.5399)"
     style="stroke:#ff0000;stroke-width:0.05mm;fill:none"
     d="M125.294563,151.753555C125.247559,151.545425,125.111633,151.36853,124.922493,151.269928C124.807007,151.209885,124.680908,151.172974,124.551208,151.161285C124.326721,151.131927,124.098686,151.14563,123.879387,151.201691C123.713074,151.247299,123.566277,151.346466,123.461983,151.483765C123.235779,151.786316,123.284554,152.212585,123.573303,152.456207C123.664307,152.535934,123.772583,152.592072,123.890007,152.619629C124.174622,152.691986,124.4729,152.691406,124.757202,152.617935C124.972412,152.557861,125.151489,152.408066,125.248596,152.206802C125.310608,152.064178,125.326599,151.905777,125.294617,151.753555L125.294563,151.753555z"
     id="path10" />
  <path
     transform="translate(21.5371,16.5399)"
     style="stroke:#ff0000;stroke-width:0.05mm;fill:none"
     d="M125.611267,149.975616L125.612183,150.417023L125.268372,150.417709L125.267464,149.976303L123.665947,149.979507C123.572937,149.963928,123.479553,150.001953,123.42395,150.077652C123.384949,150.188324,123.38092,150.308456,123.412956,150.421417L123.022461,150.484695C122.978447,150.307129,122.971443,150.122192,123.001457,149.941772C123.025452,149.791748,123.121643,149.663254,123.258667,149.597504C123.425659,149.548096,123.600342,149.529221,123.77417,149.541794L125.266357,149.538788L125.265694,149.214569L125.609497,149.213898L125.610107,149.538116L126.250732,149.536804L126.517212,149.973785L125.611267,149.975616z"
     id="path12" />
  <path
     transform="translate(21.5371,16.5399)"
     style="stroke:#ff0000;stroke-width:0.05mm;fill:none"
     d="M123.884888,144.16655L123.521912,144.284454L123.916634,144.412582L126.586433,145.325241L126.586433,145.96196L123.008301,145.969055L123.007393,145.512024L126.003479,145.506027L123.005249,144.472931L123.004463,144.043243L126.049263,143.002029L123.00238,143.008133L123.001457,142.555008L126.57959,142.547913L126.57959,143.25885L123.884888,144.16655z"
     id="path14" />
  <path
     transform="translate(21.5371,16.5399)"
     style="stroke:#ff0000;stroke-width:0.05mm;fill:none"
     d="M125.667603,154.721619C125.64563,154.842438,125.600594,154.95784,125.535522,155.061722L125.128906,154.910187C125.187927,154.813675,125.21991,154.702942,125.221916,154.589691C125.221916,154.446075,125.152946,154.311462,125.033752,154.230682L124.896973,154.164551C124.729858,154.113907,124.555656,154.0905,124.381157,154.095245L123.025627,154.097961L123.024841,153.656555L125.61853,153.651352L125.619324,154.045883L125.224854,154.046661C125.364868,154.112991,125.488831,154.208664,125.588623,154.327194C125.66864,154.441849,125.69751,154.584839,125.667603,154.721558L125.667603,154.721619z"
     id="path16" />
  <rect
     transform="matrix(-1,0,0,-1,145.475998,136.406006)"
     style="stroke:#0000ff;stroke-width:0.05mm;fill:none"
     x="-8.450008"
     y="-13.950013"
     width="16.900017"
     height="27.900026"
     id="rect18" />
  <path
     transform="translate(21.5371,16.5399)"
     style="stroke:#0000ff;stroke-width:0.05mm;fill:none"
     d="M4.627808,170.175842L23.200378,170.175842C23.200378,170.175842,23.200378,170.175842,23.200378,170.175842L23.200378,133.564774C23.200378,133.564774,23.200378,133.564774,23.200378,133.564774L4.627808,133.564774C4.627808,133.564774,4.627808,133.564774,4.627808,133.564774L4.627808,170.175842C4.627808,170.175842,4.627808,170.175842,4.627808,170.175842z"
     id="path20" />
  <path
     transform="translate(21.5371,16.5399)"
     style="stroke:#ff0000;stroke-width:0.05mm;fill:none"
     d="M15.077759,147.466843C15.050171,147.62326,14.990662,147.772308,14.902832,147.904694L14.750854,148.088577L14.559753,148.237396L14.333374,148.343323L14.075684,148.406326C13.767456,148.450684,13.45343,148.430023,13.153687,148.345657C12.842407,148.244003,12.594421,148.0056,12.48053,147.698563C12.422424,147.544968,12.391724,147.382462,12.389709,147.218262C12.388916,147.050446,12.417725,146.883774,12.474731,146.725906C12.533752,146.578903,12.62262,146.445709,12.735657,146.334778L12.930664,146.18985L13.16095,146.083923C13.50885,145.979645,13.878113,145.969482,14.231201,146.054459C14.601379,146.139038,14.901794,146.408752,15.025574,146.767715C15.102966,146.992371,15.12085,147.2332,15.077759,147.466843z"
     id="path22" />
  <path
     transform="translate(21.5371,16.5399)"
     style="stroke:#ff0000;stroke-width:0.05mm;fill:none"
     d="M15.086121,151.666046C15.058533,151.822464,14.999023,151.971527,14.911194,152.103897L14.759216,152.287796L14.568115,152.436615L14.341736,152.542526C13.956726,152.656067,13.547485,152.656891,13.162048,152.54483C12.850769,152.443176,12.602722,152.204773,12.488892,151.897736C12.430176,151.744324,12.399475,151.581696,12.398071,151.41745C12.398193,151.249695,12.426941,151.083191,12.483093,150.925079L12.592041,150.717834L12.744019,150.537842L12.939026,150.389023L13.16925,150.283096L13.442566,150.220062C13.601929,150.20076,13.762695,150.195221,13.923035,150.203476C14.216064,150.210876,14.49823,150.316193,14.724426,150.502655C14.920776,150.680069,15.049622,150.919983,15.08905,151.181625C15.116638,151.341995,15.115662,151.505981,15.086121,151.666046z"
     id="path24" />
  <path
     transform="translate(21.5371,16.5399)"
     style="stroke:#ff0000;stroke-width:0.05mm;fill:none"
     d="M14.721558,147.053482C14.655945,146.783508,14.446777,146.572128,14.17749,146.503784C13.891541,146.431427,13.592041,146.432007,13.306396,146.505493C13.088928,146.563171,12.907837,146.71347,12.811096,146.916626C12.651428,147.266785,12.79718,147.680695,13.141113,147.85347C13.259399,147.913483,13.388062,147.950363,13.520264,147.962097C13.742126,147.99173,13.96759,147.978027,14.184265,147.921707C14.399475,147.861633,14.578552,147.711838,14.675659,147.510574C14.737854,147.366592,14.753845,147.20694,14.72168,147.053482L14.721558,147.053482z"
     id="path26" />
  <path
     transform="translate(21.5371,16.5399)"
     style="stroke:#ff0000;stroke-width:0.05mm;fill:none"
     d="M14.729919,151.256561C14.683105,151.048431,14.547058,150.871536,14.357849,150.772919C14.24231,150.712891,14.116211,150.67598,13.986511,150.664291C13.762024,150.634918,13.534058,150.648636,13.314697,150.704681C13.148438,150.750305,13.001648,150.849472,12.897278,150.986771C12.671082,151.289307,12.71991,151.715591,13.008606,151.959198C13.099121,152.03894,13.207886,152.095062,13.325317,152.122635C13.609924,152.194992,13.908203,152.194397,14.192505,152.120941C14.407715,152.060867,14.586792,151.911072,14.683899,151.709808C14.745972,151.567169,14.762085,151.408783,14.729919,151.256561z"
     id="path28" />
  <path
     transform="translate(21.5371,16.5399)"
     style="stroke:#ff0000;stroke-width:0.05mm;fill:none"
     d="M15.046692,149.478622L15.047546,149.920029L14.703796,149.920715L14.702942,149.479309L13.101379,149.482513C13.008789,149.466934,12.914978,149.504944,12.859375,149.580658C12.820068,149.691315,12.816162,149.811462,12.848389,149.924423L12.457886,149.987701C12.413391,149.81012,12.406372,149.625198,12.437256,149.444763C12.461426,149.294739,12.557373,149.16626,12.694397,149.10051C12.86145,149.051102,13.036133,149.032227,13.2099,149.0448L14.702087,149.041794L14.701416,148.717575L15.045166,148.716888L15.045776,149.041107L15.686401,149.03981L15.952881,149.476791L15.046692,149.478622z"
     id="path30" />
  <path
     transform="translate(21.5371,16.5399)"
     style="stroke:#ff0000;stroke-width:0.05mm;fill:none"
     d="M13.320313,143.669556L12.957275,143.78746L13.352051,143.915588L16.021851,144.828247L16.022827,145.464966L12.444702,145.472061L12.443787,145.01503L15.43988,145.009033L12.441711,143.975922L12.440857,143.546234L15.485657,142.505035L12.438782,142.511139L12.437866,142.058014L16.015991,142.050903L16.016968,142.761841L13.320313,143.669556z"
     id="path32" />
  <path
     transform="translate(21.5371,16.5399)"
     style="stroke:#ff0000;stroke-width:0.05mm;fill:none"
     d="M15.102966,154.224609C15.081177,154.345428,15.036255,154.460846,14.970825,154.564728L14.56427,154.413177C14.623596,154.316681,14.655762,154.205948,14.657349,154.092682C14.658325,153.949081,14.58783,153.814468,14.469116,153.733688L14.332275,153.667542C14.165161,153.616913,13.991028,153.593506,13.816528,153.598251L12.46106,153.600952L12.460205,153.159546L15.053955,153.154358L15.054749,153.548889L14.660217,153.549667C14.800232,153.615997,14.924316,153.71167,15.024048,153.8302C15.10437,153.944855,15.132935,154.087845,15.102966,154.224564L15.102966,154.224609z"
     id="path34" />
  <rect
     transform="matrix(-1,0,0,-1,35.433201,136.074005)"
     style="stroke:#0000ff;stroke-width:0.05mm;fill:none"
     x="-8.450008"
     y="-13.950013"
     width="16.900017"
     height="27.900026"
     id="rect36" />
  <path
     transform="translate(21.5371,16.5399)"
     style="stroke:#000000;stroke-width:0.05mm;fill:none"
     d="M0.116821,99.94738L0.098328,136.690308L4.625488,136.695618L4.680786,160.00325L0.171509,159.957657L0.171082,199.66658C0.242554,202.942642,2.467529,204.108368,3.752136,204.533112C54.082703,216.373688,95.626648,213.505432,133.690369,204.598099C135.593079,203.923325,137.655884,203.17012,137.907166,200.031311L137.907166,160.181656L133.076172,160.120148L133.112183,136.776672L137.899597,136.797272L137.846619,99.94574C132.686646,89.626595,129.719421,77.471077,129.719421,64.450897C129.719421,51.405579,132.69812,39.228333,137.871094,28.873001L137.776123,18.822144C137.714111,17.550888,138.457642,14.062607,133.510498,12.314499C89.812012,-3.36293,46.630798,-4.631927,3.952148,12.478973L3.952148,12.478897C1.964905,13.300034,0.429932,14.225174,0.128662,17.273712L0.246399,28.896774C5.372742,39.379745,8.35144,51.556976,8.35144,64.602295C8.35144,77.622452,5.384216,89.777969,0.247559,100.073441"
     id="path38" />
  <rect
     transform="translate(134.376007,164.970001)"
     style="stroke:#000000;stroke-width:0.05mm;fill:none"
     x="-2.100002"
     y="-11.525508"
     width="4.200004"
     height="23.051016"
     id="rect40" />
  <rect
     transform="translate(46.863998,164.807007)"
     style="stroke:#000000;stroke-width:0.05mm;fill:none"
     x="-2.100002"
     y="-11.533495"
     width="4.200004"
     height="23.06699"
     id="rect42" />
  <path
     transform="translate(21.775801,24.6301)"
     style="stroke:#ff0000;stroke-width:0.05mm;fill:none"
     d="M74.686096,156.425964C74.418274,156.493774,74.147095,156.547195,73.873596,156.586121C73.744263,156.604324,73.626831,156.671432,73.545471,156.773621C73.442993,156.937012,73.474487,157.150635,73.61969,157.277542C73.769104,157.38031,73.953003,157.419632,74.131409,157.386902C74.394653,157.367905,74.629639,157.214233,74.752502,156.980652C74.816589,156.787018,74.840576,156.582336,74.822815,156.379105L74.686096,156.425964z"
     id="path44" />
  <path
     transform="translate(21.775801,24.6301)"
     style="stroke:#ff0000;stroke-width:0.05mm;fill:none"
     d="M66.201721,156.699463C66.269104,156.893188,66.331665,157.088531,66.389221,157.285416C66.445923,157.08786,66.509766,156.892395,66.580627,156.699463L67.549377,154.101822L68.033752,154.101822L66.631409,157.679947L66.147034,157.679947L64.760315,154.101822L65.272034,154.101822L66.201721,156.699463z"
     id="path46" />
  <path
     transform="translate(21.775801,24.6301)"
     style="stroke:#ff0000;stroke-width:0.05mm;fill:none"
     d="M79.690002,155.402618C79.345703,155.476715,79.100037,155.780884,79.100159,156.133087L80.545471,156.133087C80.541443,155.957443,80.484497,155.787079,80.381409,155.644806C80.249512,155.478455,80.046692,155.384293,79.834534,155.390884L79.690002,155.402618z"
     id="path48" />
  <path
     transform="translate(21.775801,24.6301)"
     style="stroke:#ff0000;stroke-width:0.05mm;fill:none"
     d="M70.326721,156.027649L70.326721,157.258118L71.322815,157.258118C71.377686,157.257568,71.432495,157.254105,71.486877,157.246414C71.647522,157.240417,71.7995,157.173111,71.912659,157.058914C71.97998,156.988403,72.02594,156.900452,72.045471,156.804993C72.090088,156.630463,72.060364,156.445145,71.963501,156.293274C71.842346,156.13562,71.654541,156.043152,71.455688,156.043274C71.355774,156.032181,71.255371,156.026978,71.154907,156.027679L70.326721,156.027649z"
     id="path50" />
  <path
     transform="translate(21.775801,24.6301)"
     style="stroke:#ff0000;stroke-width:0.05mm;fill:none"
     d="M74.420471,155.031494C74.619019,155.036499,74.812866,155.093094,74.982971,155.195572L75.107971,155.304932C75.175964,155.391937,75.222778,155.493591,75.24469,155.601822C75.257019,155.691116,75.263489,155.781174,75.26416,155.871353C75.253479,156.333694,75.260132,156.796204,75.28363,157.258072C75.288635,157.406464,75.330505,157.551331,75.404724,157.679932L74.947693,157.679932C74.896973,157.580139,74.866516,157.471252,74.85791,157.359634C74.502502,157.695465,73.996582,157.820114,73.525879,157.687744C73.219849,157.598648,73.011597,157.315033,73.018066,156.996353L73.037537,156.812744C73.101013,156.587616,73.263367,156.403625,73.478943,156.312744C73.618225,156.253845,73.765808,156.216949,73.916443,156.203384C74.223389,156.17778,74.526978,156.121475,74.822693,156.035416C74.84021,155.888428,74.815674,155.739456,74.75238,155.605713C74.65509,155.483795,74.509827,155.409744,74.353943,155.402603C74.176697,155.374496,73.995239,155.391998,73.826599,155.4534C73.698364,155.511002,73.602417,155.62265,73.56488,155.758087L73.521851,155.886993L73.092163,155.8284C73.127747,155.589355,73.25708,155.374298,73.451538,155.230743C73.647034,155.110413,73.870544,155.043091,74.099976,155.035431C74.206482,155.026428,74.313538,155.025024,74.420288,155.031433"
     id="path52" />
  <path
     transform="translate(21.775801,24.6301)"
     style="stroke:#ff0000;stroke-width:0.05mm;fill:none"
     d="M63.440002,154.0979C63.847717,154.155304,64.193481,154.426514,64.346252,154.808853C64.43103,155.032684,64.478516,155.268845,64.486877,155.508072C64.516174,155.902863,64.490906,156.299744,64.412659,156.687744C64.358643,156.957672,64.231628,157.207642,64.045471,157.4104C63.824524,157.626694,63.52655,157.746185,63.217346,157.742432C63.027588,157.749435,62.839417,157.703537,62.674377,157.609634C62.517578,157.523834,62.392822,157.389526,62.318909,157.226822C62.259338,157.109756,62.222229,156.982544,62.209534,156.851822L62.631409,156.812714C62.649597,156.976425,62.722595,157.129242,62.83844,157.246323C63.001587,157.375366,63.217529,157.416214,63.416565,157.355698C63.589905,157.306885,63.737976,157.193756,63.830627,157.039276C64.000793,156.719086,64.079163,156.358246,64.05719,155.996323C63.830566,156.354065,63.40509,156.533325,62.990784,156.445526C62.855408,156.420837,62.727234,156.366028,62.615784,156.285385C62.435303,156.157166,62.297791,155.977478,62.221252,155.76976C62.114746,155.45668,62.116089,155.117126,62.225281,154.804916C62.330383,154.519379,62.547729,154.289337,62.826843,154.168198C63.021973,154.092804,63.233032,154.068604,63.440125,154.0979"
     id="path54" />
  <path
     transform="translate(21.775801,24.6301)"
     style="stroke:#ff0000;stroke-width:0.05mm;fill:none"
     d="M80.080627,155.051025C80.232117,155.079025,80.375977,155.138931,80.502502,155.226822L80.68219,155.383072L80.822815,155.578369L80.928284,155.808838L80.990784,156.074463C81.009705,156.214264,81.014893,156.35556,81.006409,156.496338L79.072815,156.496338C79.079834,156.680908,79.128906,156.861542,79.217346,157.023682C79.419678,157.350372,79.835999,157.471725,80.18219,157.304932C80.357483,157.20401,80.48645,157.038635,80.541565,156.843994L80.99469,156.902588C80.936707,157.14801,80.796021,157.365891,80.596252,157.519775C80.442993,157.632965,80.262268,157.703094,80.072815,157.7229C79.828491,157.758301,79.579224,157.734207,79.346252,157.652603L79.135315,157.543228L78.951721,157.386978L78.80719,157.195572L78.701721,156.969009L78.639221,156.703384C78.61322,156.502396,78.61322,156.298904,78.639221,156.097916L78.705627,155.824493L78.811096,155.590103L78.955627,155.390884L79.139221,155.230743L79.342346,155.117462C79.577576,155.027466,79.83313,155.004517,80.080627,155.051025z"
     id="path56" />
  <path
     transform="translate(21.775801,24.6301)"
     style="stroke:#ff0000;stroke-width:0.05mm;fill:none"
     d="M83.658752,157.679932L83.217346,157.679932L83.217346,155.086182L83.658752,155.086182L83.658752,157.679932z"
     id="path58" />
  <path
     transform="translate(21.775801,24.6301)"
     style="stroke:#ff0000;stroke-width:0.05mm;fill:none"
     d="M82.631409,155.039322C82.752197,155.061417,82.867493,155.106415,82.971252,155.172119L82.818909,155.578369C82.722534,155.518875,82.611877,155.486481,82.498596,155.48468C82.35498,155.483673,82.220215,155.553574,82.139221,155.67218L82.072815,155.808899C82.02179,155.975876,81.998108,156.149994,82.002502,156.324524L82.002502,157.679993L81.561096,157.679993L81.561096,155.086243L81.955627,155.086243L81.955627,155.480774C82.022217,155.340897,82.118164,155.21701,82.236877,155.117493C82.351685,155.037384,82.494751,155.009094,82.631409,155.039398L82.631409,155.039322z"
     id="path60" />
  <path
     transform="translate(21.775801,24.6301)"
     style="stroke:#ff0000;stroke-width:0.05mm;fill:none"
     d="M83.658752,154.605713L83.217346,154.605713L83.217346,154.101822L83.658752,154.101822L83.658752,154.605713z"
     id="path62" />
  <path
     transform="translate(21.775801,24.6301)"
     style="stroke:#ff0000;stroke-width:0.05mm;fill:none"
     d="M85.240784,155.402618C84.953064,155.460419,84.728271,155.685226,84.670471,155.972916L84.647095,156.133087L86.096313,156.133087C86.092285,155.957443,86.035339,155.787079,85.932251,155.644806C85.800354,155.478455,85.597534,155.384293,85.385376,155.390884L85.240784,155.402618z"
     id="path64" />
  <path
     transform="translate(21.775801,24.6301)"
     style="stroke:#ff0000;stroke-width:0.05mm;fill:none"
     d="M71.389221,154.105713C71.593628,154.112717,71.793457,154.168716,71.971252,154.269775C72.37262,154.518921,72.499634,155.044495,72.256409,155.449463C72.164307,155.591461,72.034363,155.705124,71.881409,155.777603C72.327087,155.883163,72.617615,156.312973,72.549377,156.765884C72.514404,157.185974,72.207825,157.533844,71.795471,157.621353C71.605591,157.662659,71.411621,157.682343,71.217346,157.679947L69.854065,157.679947L69.854065,154.101837C70.365662,154.092834,70.877625,154.093826,71.389221,154.105835"
     id="path66" />
  <path
     transform="translate(21.775801,24.6301)"
     style="stroke:#ff0000;stroke-width:0.05mm;fill:none"
     d="M63.18219,154.465088C62.931885,154.531281,62.732239,154.719269,62.65094,154.965088C62.578247,155.176285,62.576843,155.405365,62.646912,155.617432C62.769104,155.945724,63.112183,156.136322,63.455505,156.06665C63.694763,156.018539,63.888306,155.843048,63.959412,155.609619C64.049683,155.34024,64.027222,155.045685,63.896912,154.793213C63.804016,154.626907,63.645081,154.507706,63.459412,154.465088C63.368103,154.444275,63.273315,154.444275,63.182068,154.465088L63.18219,154.465088z"
     id="path70" />
  <path
     transform="translate(21.775801,24.6301)"
     style="stroke:#ff0000;stroke-width:0.05mm;fill:none"
     d="M70.326721,154.523773L70.326721,155.605804C70.633972,155.612808,70.941406,155.610809,71.248596,155.601807C71.409485,155.610809,71.569702,155.572418,71.709534,155.492432C71.848328,155.40033,71.927429,155.240677,71.916565,155.074463C71.915955,154.963303,71.886353,154.854233,71.830688,154.758057C71.755981,154.641724,71.632263,154.56546,71.494751,154.551025C71.344482,154.531723,71.193115,154.522629,71.041626,154.523727L70.326721,154.523773z"
     id="path72" />
  <path
     transform="translate(21.775801,24.6301)"
     style="stroke:#ff0000;stroke-width:0.05mm;fill:none"
     d="M76.482971,155.086182L76.924377,155.086182L76.924377,155.429932L76.482971,155.429932L76.482971,156.945572C76.480957,157.026978,76.488953,157.108215,76.506348,157.187744C76.549133,157.271149,76.640198,157.318222,76.73291,157.304932C76.79718,157.304932,76.861328,157.297943,76.924316,157.285431L76.990723,157.676056C76.811707,157.720154,76.625549,157.726761,76.443848,157.695557C76.294983,157.668457,76.167786,157.573059,76.100098,157.437744C76.055298,157.26973,76.036804,157.09581,76.04541,156.922119L76.04541,155.429932L75.725098,155.429932L75.725098,155.086182L76.04541,155.086182L76.04541,154.445557L76.48291,154.179932L76.482971,155.086182z"
     id="path74" />
  <path
     transform="translate(21.775801,24.6301)"
     style="stroke:#ff0000;stroke-width:0.05mm;fill:none"
     d="M77.885315,155.086182L78.326721,155.086182L78.326721,155.429932L77.885315,155.429932L77.885315,157.031494C77.869507,157.1241,77.90741,157.217957,77.983032,157.273682C78.093628,157.313187,78.213745,157.317383,78.326782,157.285385L78.389282,157.676025C78.211609,157.720123,78.026672,157.726822,77.846313,157.695526C77.69635,157.671021,77.568054,157.574829,77.502563,157.437714C77.453491,157.270554,77.434937,157.095825,77.447876,156.922089L77.447876,155.429886L77.123657,155.429886L77.123657,155.086136L77.447876,155.086136L77.447876,154.445526L77.885376,154.179886L77.885315,155.086182z"
     id="path76" />
  <path
     transform="translate(21.775801,24.6301)"
     style="stroke:#ff0000;stroke-width:0.05mm;fill:none"
     d="M85.627502,155.051025L85.854065,155.117432L86.053284,155.226807L86.229065,155.383057L86.373596,155.578369L86.479065,155.808838C86.545166,156.031647,86.571594,156.264359,86.55719,156.496338L84.623596,156.496338C84.629578,156.681091,84.678772,156.861847,84.768127,157.023682C84.968994,157.349869,85.384033,157.471329,85.729065,157.304932C85.906555,157.205627,86.037292,157.03978,86.092346,156.843979L86.545471,156.902588C86.486267,157.14743,86.345825,157.365051,86.147034,157.51976C85.992004,157.632309,85.810181,157.702362,85.61969,157.7229C85.376648,157.757996,85.128723,157.733887,84.897034,157.652588L84.686096,157.543213L84.502502,157.386963L84.357971,157.195557L84.252502,156.968994L84.190002,156.703369C84.164001,156.50238,84.164001,156.298889,84.190002,156.0979L84.252502,155.824478L84.357971,155.590088L84.506409,155.390869L84.686096,155.230728L84.893127,155.117447L85.123596,155.051056C85.2901,155.019745,85.460999,155.019745,85.627502,155.051025z"
     id="path78" />
  <path
     transform="translate(16.8508,27.058599)"
     style="stroke:#00e000;stroke-width:0.05mm;fill:none"
     d="M110.421883,127.063469C109.363037,129.260483,108.28186,129.558228,99.7229,130.009689C92.434021,130.394165,88.296204,132.199387,83.635559,137.028229C81.930054,138.795303,79.948669,141.647522,79.232544,143.366516C78.516418,145.085495,76.974487,147.118347,75.80603,147.883972C72.790833,149.859619,70.235046,148.446289,67.826782,143.471558C65.123596,137.887497,59.816345,132.830109,54.902527,131.155823C52.602478,130.372131,48.216797,129.768219,44.8255,129.768219C40.072388,129.768219,38.53186,129.448898,37.434265,128.236053C35.471863,126.067596,35.62146,125.299622,39.608398,117.07431C45.86145,107.558533,45.446472,99.468735,38.157043,91.748451C35.771301,88.232895,35.537292,86.381363,37.192505,84.117699C38.137146,82.825798,39.565674,82.52874,45.361389,82.418961C49.67157,82.337364,53.592407,81.766792,55.509521,80.942284C59.895935,79.055763,66.58728,72.544189,68.651001,68.153893C69.831055,65.643425,71.070679,64.28067,72.50061,63.921768C75.16571,63.252853,76.392334,64.282227,79.506958,69.801041C84.26886,78.238663,91.210876,82.20356,101.674744,82.461998C111.159416,82.696251,113.216919,85.643372,108.622383,92.413788C107.411377,94.198288,105.980591,97.206413,105.442932,99.098526C104.905212,100.990623,103.74762,103.346527,102.870422,104.333847C101.305969,106.094727,101.305794,106.158684,102.860413,107.685173C103.732178,108.541077,104.91217,110.864113,105.482674,112.847488C106.053162,114.830879,107.6297,118.203651,108.986153,120.342537C111.736816,124.679939,111.68573,124.440689,110.421753,127.063469L110.421883,127.063469z"
     id="path80" />
  <rect
     transform="matrix(-0,1,-1,-0,90.539902,47.731899)"
     style="stroke:#00e000;stroke-width:0.05mm;fill:none"
     x="-29.407499"
     y="-10.000011"
     width="58.814999"
     height="20.000023"
     id="rect82" />
  <circle
     transform="translate(90.539902,205.106995)"
     style="stroke:#00e000;stroke-width:0.05mm;fill:none"
     r="22.5"
     cx="0"
     cy="0"
     id="circle84" />
  <circle
     transform="translate(90.539902,205.106995)"
     style="stroke:#000000;stroke-width:0.05mm;fill:none"
     r="5"
     cx="0"
     cy="0"
     id="circle86" />
  <rect
     transform="translate(90.539902,36.851601)"
     style="stroke:#0000ff;stroke-width:0.05mm;fill:none"
     x="-23.000002"
     y="-19.161501"
     width="46.000004"
     height="38.323002"
     rx="5"
     id="rect88" />
  <path
     transform="translate(21.5371,26.5399)"
     style="stroke:#ff0000;stroke-width:0.05mm;fill:none"
     d="M69.331116,65.371414C69.335144,65.525574,69.301025,65.678261,69.23291,65.816605C69.160583,65.936073,69.050537,66.028046,68.920105,66.077965L68.799255,65.890327C68.886658,65.855728,68.959778,65.792526,69.00647,65.710876L69.057495,65.566406L69.077271,65.371117L68.831177,65.370827L68.831787,64.870819L69.331787,64.871414L69.331116,65.371414z"
     id="path90" />
  <path
     transform="translate(21.5371,26.5399)"
     style="stroke:#ff0000;stroke-width:0.05mm;fill:none"
     d="M62.790466,63.379395C62.851563,63.476089,62.912354,63.572098,62.973694,63.668671C63.17572,63.363022,63.387085,63.063629,63.607544,62.770981L64.134888,62.771591L63.235046,63.993195L64.198303,65.365402L63.659241,65.364769C63.454773,65.05423,63.188904,64.650604,62.98468,64.340546L62.303772,65.363182L61.772522,65.362564L62.719421,64.016022L61.845886,62.768906L62.396667,62.769562L62.790466,63.379395z"
     id="path92" />
  <path
     transform="translate(21.5371,26.5399)"
     style="stroke:#ff0000;stroke-width:0.05mm;fill:none"
     d="M79.241516,61.808762C79.445923,61.815765,79.645691,61.872162,79.823364,61.973495C80.224426,62.223099,80.350891,62.74884,80.107117,63.153519C80.014832,63.295395,79.884766,63.408905,79.73175,63.481201C80.177307,63.58728,80.467346,64.017441,80.39856,64.470261C80.363037,64.890305,80.056091,65.237823,79.643677,65.324852C79.453735,65.365952,79.259766,65.385452,79.065491,65.382751L77.702209,65.380753L77.706238,61.802628C78.218018,61.794632,78.729736,61.795624,79.241394,61.808624"
     id="path94" />
  <path
     transform="translate(21.5371,26.5399)"
     style="stroke:#ff0000;stroke-width:0.05mm;fill:none"
     d="M91.510437,62.323074L91.069031,62.322556L91.069641,61.818649L91.511047,61.819153L91.510437,62.323074z"
     id="path96" />
  <path
     transform="translate(21.5371,26.5399)"
     style="stroke:#ff0000;stroke-width:0.05mm;fill:none"
     d="M90.482605,62.755478C90.603333,62.777679,90.718628,62.822876,90.822266,62.888687L90.669434,63.294754C90.572021,63.234451,90.4599,63.201859,90.345337,63.200653C90.203125,63.200394,90.070007,63.270355,89.989624,63.387741L89.923035,63.524384C89.871826,63.691299,89.847961,63.865387,89.852112,64.039917L89.850098,65.395378L89.408691,65.394867L89.411682,62.801117L89.806213,62.80159L89.805725,63.196121C89.872498,63.05632,89.968567,62.932556,90.087402,62.83316C90.202332,62.753265,90.345398,62.725067,90.481995,62.755463L90.482605,62.755478z"
     id="path98" />
  <path
     transform="translate(21.5371,26.5399)"
     style="stroke:#ff0000;stroke-width:0.05mm;fill:none"
     d="M72.201904,62.265381L70.772217,62.263382L70.579712,63.224106C70.837463,63.033417,71.163818,62.960037,71.478394,63.022018C71.695557,63.058624,71.894592,63.165985,72.044434,63.327362C72.203308,63.488739,72.309265,63.694534,72.34845,63.917557C72.40033,64.224457,72.350464,64.53978,72.206787,64.815826C72.087769,65.037888,71.90155,65.216812,71.674927,65.326927C71.433777,65.43055,71.167664,65.461456,70.90918,65.415825C70.631348,65.378227,70.379211,65.233551,70.206543,65.01265C70.084229,64.842743,70.010193,64.642853,69.992371,64.43428L70.453369,64.395782C70.472473,64.587173,70.556396,64.76651,70.69104,64.90387C70.984314,65.154404,71.423889,65.123657,71.679382,64.834671C71.790283,64.709549,71.862366,64.554993,71.886963,64.389603C71.915771,64.213257,71.902588,64.032516,71.848572,63.862213C71.741577,63.565536,71.453186,63.373337,71.138184,63.388718C71.003967,63.38472,70.871338,63.41832,70.755249,63.485916C70.645569,63.544922,70.552673,63.630814,70.485413,63.735611L70.071411,63.680405L70.421204,61.840973L72.202454,61.842972L72.201904,62.265381z"
     id="path100" />
  <path
     transform="translate(21.5371,26.5399)"
     style="stroke:#ff0000;stroke-width:0.05mm;fill:none"
     d="M85.73645,62.796814L86.177856,62.797318L86.177429,63.141068L85.736023,63.140564L85.734009,64.742111C85.718079,64.834717,85.75592,64.928574,85.831421,64.984421C85.941956,65.024124,86.062073,65.02832,86.175171,64.996521L86.237244,65.387215C86.059509,65.431114,85.874573,65.437515,85.694275,65.406113C85.544312,65.381516,85.416138,65.285095,85.35083,65.147903C85.301941,64.980667,85.28363,64.805939,85.296753,64.632217L85.298767,63.14003L84.974548,63.139648L84.974976,62.795898L85.299194,62.79628L85.299927,62.155655L85.737732,61.890533L85.73645,62.796814z"
     id="path102" />
  <path
     transform="translate(21.5371,26.5399)"
     style="stroke:#ff0000;stroke-width:0.05mm;fill:none"
     d="M84.334106,62.795166L84.775513,62.79567L84.775085,63.13942L84.333679,63.138916L84.331665,64.654541C84.329651,64.735947,84.337646,64.8172,84.354736,64.896744C84.397461,64.980148,84.488403,65.027359,84.581177,65.014206C84.645447,65.014282,84.709595,65.008209,84.772583,64.994904L84.838501,65.385605C84.659424,65.429405,84.473267,65.435905,84.291626,65.404503C84.142822,65.377304,84.015686,65.281677,83.948181,65.146286C83.903564,64.978226,83.885254,64.804276,83.894104,64.6306L83.896118,63.138412L83.575806,63.138046L83.576233,62.794296L83.896545,62.794662L83.897278,62.154037L84.335083,61.888916L84.334106,62.795166z"
     id="path104" />
  <path
     transform="translate(21.5371,26.5399)"
     style="stroke:#ff0000;stroke-width:0.05mm;fill:none"
     d="M67.448303,65.369202L67.006897,65.36869L67.009888,62.567917C66.751465,62.796753,66.453369,62.976425,66.130371,63.098129L66.130859,62.672348C66.516602,62.501282,66.85083,62.232407,67.100525,61.892227L67.167053,61.775116L67.452209,61.775452L67.448303,65.369202z"
     id="path106" />
  <path
     transform="translate(21.5371,26.5399)"
     style="stroke:#ff0000;stroke-width:0.05mm;fill:none"
     d="M87.931824,62.764206C88.083313,62.792313,88.227051,62.852402,88.353516,62.940491L88.53302,63.096954L88.673401,63.292419L88.778625,63.52301L88.84082,63.788712C88.859497,63.928528,88.864624,64.069824,88.855896,64.210602L86.922302,64.208603C86.928284,64.393188,86.978027,64.573868,87.066223,64.736115C87.268188,65.063049,87.684326,65.184891,88.030762,65.018494C88.206177,64.917786,88.335327,64.752548,88.390686,64.557968L88.84375,64.617065C88.785461,64.862427,88.644531,65.080139,88.44458,65.23378C88.291199,65.346802,88.110413,65.416718,87.920898,65.436302C87.676575,65.471405,87.427307,65.446999,87.194397,65.365105L86.983582,65.255478L86.800171,65.099014L86.655884,64.90744L86.550659,64.680756L86.488464,64.415054C86.462646,64.21405,86.462891,64.010544,86.489197,63.809601L86.555908,63.53624L86.661621,63.301987L86.806396,63.102936L86.990173,62.942993L87.19342,62.829941C87.428772,62.740234,87.684326,62.717575,87.931763,62.764435"
     id="path108" />
  <path
     transform="translate(21.5371,26.5399)"
     style="stroke:#ff0000;stroke-width:0.05mm;fill:none"
     d="M59.179077,61.785339C59.324158,61.802933,59.463867,61.851044,59.58905,61.926437C59.816772,62.066956,59.977295,62.294296,60.03363,62.555862C60.072205,62.767868,60.047546,62.986633,59.962646,63.184677C59.857361,63.39209,59.718567,63.580612,59.551819,63.742798C59.228149,64.044937,58.896973,64.338898,58.558594,64.624435C58.455811,64.714539,58.367432,64.819824,58.296509,64.93663L60.054321,64.938629L60.053833,65.360497L57.686646,65.357498C57.696655,65.11557,57.782776,64.883194,57.933533,64.693726C58.078979,64.506165,58.244202,64.334808,58.426331,64.182587C58.723389,63.95108,59.004272,63.699509,59.267029,63.429657C59.384583,63.306503,59.479919,63.163864,59.548767,63.008118C59.633972,62.81015,59.613647,62.582336,59.494751,62.402588C59.361389,62.222961,59.148315,62.120483,58.924744,62.128479C58.639954,62.112381,58.376892,62.280472,58.271912,62.545685C58.239014,62.642487,58.223022,62.744202,58.224731,62.84642L57.771667,62.799026C57.783569,62.645584,57.820679,62.495163,57.881592,62.353836C57.997864,62.104141,58.21344,61.914551,58.475952,61.8311C58.703857,61.762802,58.944275,61.747101,59.179138,61.785004L59.179077,61.785339z"
     id="path110" />
  <path
     transform="translate(21.5371,26.5399)"
     style="stroke:#ff0000;stroke-width:0.05mm;fill:none"
     d="M87.540771,63.11528C87.196411,63.18898,86.950378,63.492874,86.950073,63.845062L88.395386,63.847061C88.391357,63.671417,88.334778,63.500992,88.231873,63.358597C88.100159,63.192093,87.897461,63.097702,87.685303,63.10405L87.540771,63.11528z"
     id="path112" />
  <path
     transform="translate(21.5371,26.5399)"
     style="stroke:#ff0000;stroke-width:0.05mm;fill:none"
     d="M82.271667,62.738083C82.470215,62.743088,82.66394,62.800186,82.833984,62.902786L82.958862,63.012314C83.026733,63.099411,83.073425,63.201111,83.095215,63.309357C83.107422,63.398651,83.113831,63.488739,83.114441,63.578903C83.10321,64.041229,83.109436,64.503769,83.132324,64.965637C83.137329,65.114044,83.178833,65.258957,83.25293,65.387657L82.795898,65.387115C82.7453,65.287216,82.714905,65.178329,82.706421,65.066696C82.350647,65.402138,81.844543,65.526176,81.374023,65.393265C81.068054,65.303764,80.860168,65.019958,80.867004,64.701263L80.886719,64.5177C80.950439,64.292618,81.113037,64.108841,81.328735,64.018234C81.468079,63.959534,81.615723,63.922729,81.766357,63.909363C82.073303,63.884155,82.377014,63.828262,82.672791,63.742447C82.690491,63.59549,82.666809,63.446472,82.602966,63.312683C82.505737,63.190628,82.360657,63.116409,82.204773,63.1091C82.027527,63.080795,81.846069,63.098007,81.677368,63.159302C81.549072,63.216705,81.453003,63.328293,81.415283,63.463699L81.372192,63.592545L80.942566,63.533447C80.978455,63.294449,81.108032,63.079529,81.302612,62.936218C81.49823,62.816101,81.721863,62.749054,81.951294,62.741653C82.057861,62.732651,82.164917,62.731552,82.271606,62.737656"
     id="path114" />
  <path
     transform="translate(21.5371,26.5399)"
     style="stroke:#ff0000;stroke-width:0.05mm;fill:none"
     d="M93.091553,63.121735C92.803772,63.17923,92.578735,63.403732,92.520569,63.691391L92.496948,63.851517L93.946167,63.853516C93.947144,63.621994,93.846008,63.401459,93.669556,63.251633C93.503662,63.12915,93.293884,63.082123,93.091553,63.12204L93.091553,63.121735z"
     id="path116" />
  <path
     transform="translate(21.5371,26.5399)"
     style="stroke:#ff0000;stroke-width:0.05mm;fill:none"
     d="M91.506836,65.397293L91.06543,65.396774L91.06842,62.80304L91.509827,62.803558L91.506836,65.397293z"
     id="path118" />
  <path
     transform="translate(21.5371,26.5399)"
     style="stroke:#ff0000;stroke-width:0.05mm;fill:none"
     d="M93.478638,62.770691L93.705139,62.837387L93.904236,62.946991L94.079834,63.103455L94.224121,63.298935L94.329346,63.529526C94.395142,63.752411,94.421326,63.985168,94.406616,64.217102L92.473022,64.215103C92.478027,64.399857,92.527832,64.580688,92.616943,64.742615C92.817444,65.069031,93.2323,65.190979,93.577576,65.024979C93.755188,64.925873,93.886108,64.760193,93.941406,64.564453L94.39447,64.62355C94.334961,64.868317,94.194275,65.085785,93.9953,65.24028C93.840149,65.352654,93.658203,65.42247,93.467712,65.44278C93.22467,65.477577,92.976746,65.453178,92.745117,65.371582L92.534302,65.261963L92.350891,65.105499L92.206604,64.913925L92.101379,64.687241L92.039185,64.421539C92.013367,64.220535,92.013611,64.017029,92.039917,63.816086L92.102722,63.542709L92.208435,63.308456L92.357117,63.109406L92.536987,62.949463L92.744141,62.836426L92.97467,62.770325C93.141235,62.739227,93.312073,62.739426,93.478577,62.77092"
     id="path120" />
  <path
     transform="translate(21.5371,26.5399)"
     style="stroke:#ff0000;stroke-width:0.05mm;fill:none"
     d="M78.176697,63.729416L78.17572,64.959885L79.171814,64.960892C79.226685,64.960419,79.281494,64.956894,79.335876,64.949387C79.496521,64.94339,79.64856,64.876389,79.761902,64.76239C79.829224,64.691986,79.875366,64.60405,79.89502,64.508636C79.939819,64.334137,79.910339,64.148773,79.813599,63.996826C79.692627,63.839005,79.504944,63.746323,79.306091,63.746231C79.206299,63.735031,79.105835,63.72963,79.00531,63.730225L78.176697,63.729416z"
     id="path122" />
  <path
     transform="translate(21.5371,26.5399)"
     style="stroke:#ff0000;stroke-width:0.05mm;fill:none"
     d="M82.535706,64.132935C82.267822,64.200439,81.996521,64.25354,81.723022,64.292145C81.593628,64.310242,81.476196,64.377151,81.394653,64.479263C81.291992,64.642517,81.323242,64.856186,81.468262,64.983246C81.617554,65.086212,81.801392,65.125732,81.979858,65.093216C82.243103,65.074509,82.478271,64.921112,82.60144,64.687698C82.665833,64.494125,82.689941,64.289474,82.672424,64.086212L82.535706,64.132935z"
     id="path124" />
  <path
     transform="translate(21.5371,26.5399)"
     style="stroke:#ff0000;stroke-width:0.05mm;fill:none"
     d="M78.178528,62.225479L78.177551,63.30751C78.484802,63.314514,78.792236,63.313507,79.099426,63.304504C79.260315,63.313507,79.420532,63.275497,79.560486,63.195663C79.699402,63.10376,79.778625,62.944168,79.768005,62.777939C79.767517,62.666794,79.737976,62.557678,79.682434,62.461441C79.608032,62.344849,79.484314,62.268417,79.346741,62.254013C79.196533,62.234512,79.045166,62.22522,78.893677,62.22612L78.178833,62.225296"
     id="path126" />
  <path
     transform="translate(21.5371,26.5399)"
     style="stroke:#ff0000;stroke-width:0.05mm;fill:none"
     d="M74.050964,64.396454C74.118164,64.59024,74.18042,64.785675,74.237793,64.982605C74.2948,64.785126,74.358826,64.589752,74.429871,64.396896L75.401611,61.800369L75.885986,61.800934L74.479492,65.377411L73.995117,65.376854L72.612549,61.797119L73.124268,61.797714L74.050964,64.396454z"
     id="path128" />
  <path
     transform="translate(16.5371,26.5399)"
     style="stroke:#0000ff;stroke-width:0.05mm;fill:none"
     d="M42.839905,79.741402L42.839905,54.406799C42.839905,54.406799,42.839905,54.406799,42.839905,54.406799L105.574463,54.406799C105.574463,54.406799,105.574463,54.406799,105.574463,54.406799L105.574463,79.741402C105.574463,79.741402,105.574463,79.741402,105.574463,79.741402L42.839905,79.741402C42.839905,79.741402,42.839905,79.741402,42.839905,79.741402z"
     id="path130" />
  <path
     transform="translate(19.667999,26.5399)"
     style="stroke:#000000;stroke-width:0.05mm;fill:none"
     d="M47.250793,83.994728L47.250793,81.494736C47.250793,81.494736,47.250793,81.494736,47.250793,81.494736L52.250793,81.494736C52.250793,81.494736,52.250793,81.494736,52.250793,81.494736L52.250793,83.994728C52.250793,83.994728,52.250793,83.994728,52.250793,83.994728L47.250793,83.994728C47.250793,83.994728,47.250793,83.994728,47.250793,83.994728z"
     id="path132" />
  <path
     transform="translate(19.667999,26.5399)"
     style="stroke:#000000;stroke-width:0.05mm;fill:none"
     d="M89.098633,83.994728L89.098633,81.494736C89.098633,81.494736,89.098633,81.494736,89.098633,81.494736L94.098633,81.494736C94.098633,81.494736,94.098633,81.494736,94.098633,81.494736L94.098633,83.994728C94.098633,83.994728,94.098633,83.994728,94.098633,83.994728L89.098633,83.994728C89.098633,83.994728,89.098633,83.994728,89.098633,83.994728z"
     id="path134" />
  <path
     transform="translate(19.667999,26.5399)"
     style="stroke:#000000;stroke-width:0.05mm;fill:none"
     d="M47.250793,52.631912L47.250793,50.131912C47.250793,50.131912,47.250793,50.131912,47.250793,50.131912L52.250793,50.131912C52.250793,50.131912,52.250793,50.131912,52.250793,50.131912L52.250793,52.631912C52.250793,52.631912,52.250793,52.631912,52.250793,52.631912L47.250793,52.631912C47.250793,52.631912,47.250793,52.631912,47.250793,52.631912z"
     id="path136" />
  <path
     transform="translate(19.667999,26.5399)"
     style="stroke:#000000;stroke-width:0.05mm;fill:none"
     d="M89.493896,52.631912L89.493896,50.131912C89.493896,50.131912,89.493896,50.131912,89.493896,50.131912L94.493896,50.131912C94.493896,50.131912,94.493896,50.131912,94.493896,50.131912L94.493896,52.631912C94.493896,52.631912,94.493896,52.631912,94.493896,52.631912L89.493896,52.631912C89.493896,52.631912,89.493896,52.631912,89.493896,52.631912z"
     id="path138" />
  <path
     transform="translate(16.740997,30.9897)"
     style="stroke:#000000;stroke-width:0.05mm;fill:none"
     d="M115.77124,70.279152C115.771606,73.74321,113.900208,76.552742,111.590523,76.553352C109.281563,76.553352,107.40979,73.744293,107.40979,70.279152C107.410217,66.81292,109.282288,64.004364,111.590523,64.004959C113.899483,64.004974,115.77124,66.814011,115.77124,70.27916L115.77124,70.279152z"
     id="path140" />
  <path
     transform="translate(16.740997,30.9897)"
     style="stroke:#000000;stroke-width:0.05mm;fill:none"
     d="M40.664795,70.279144C40.665222,73.743202,38.793762,76.552734,36.48407,76.553345C34.17511,76.553345,32.303345,73.744293,32.303345,70.279144C32.303772,66.812912,34.175842,64.004364,36.48407,64.004944C38.79303,64.004959,40.664795,66.813995,40.664795,70.279144z"
     id="path142" />
  <rect
     transform="matrix(-0,-1,1,-0,83.585403,176.998001)"
     style="stroke:#0000ff;stroke-width:0.05mm;fill:none"
     x="-12.500019"
     y="-27.5"
     width="25.000038"
     height="55"
     id="rect144" />
  <path
     transform="translate(16.794701,15.6291)"
     style="stroke:#000000;stroke-width:0.05mm;fill:none"
     d="M50.986633,175.103836L50.986633,177.603867C50.986633,177.603867,50.986633,177.603867,50.986633,177.603867L45.986633,177.603867C45.986633,177.603867,45.986633,177.603867,45.986633,177.603867L45.986633,175.103836C45.986633,175.103836,45.986633,175.103836,45.986633,175.103836L50.986633,175.103836C50.986633,175.103836,50.986633,175.103836,50.986633,175.103836z"
     id="path146" />
  <path
     transform="translate(16.9182,24.6301)"
     style="stroke:#000000;stroke-width:0.05mm;fill:none"
     d="M50.863098,136.023651L50.863098,138.523651C50.863098,138.523651,50.863098,138.523651,50.863098,138.523651L45.863098,138.523651C45.863098,138.523651,45.863098,138.523651,45.863098,138.523651L45.863098,136.023651C45.863098,136.023651,45.863098,136.023651,45.863098,136.023651L50.863098,136.023651C50.863098,136.023651,50.863098,136.023651,50.863098,136.023651z"
     id="path148" />
  <path
     transform="translate(1.59393,24.6299)"
     style="stroke:#000000;stroke-width:0.05mm;fill:none"
     d="M101.733887,136.023819L101.733887,138.523819C101.733887,138.523819,101.733887,138.523819,101.733887,138.523819L96.733887,138.523819C96.733887,138.523819,96.733887,138.523819,96.733887,138.523819L96.733887,136.023819C96.733887,136.023819,96.733887,136.023819,96.733887,136.023819L101.733887,136.023819C101.733887,136.023819,101.733887,136.023819,101.733887,136.023819z"
     id="path150" />
  <path
     transform="translate(1.47034,15.6291)"
     style="stroke:#000000;stroke-width:0.05mm;fill:none"
     d="M101.857483,175.103851L101.857483,177.603882C101.857483,177.603882,101.857483,177.603882,101.857483,177.603882L96.857483,177.603882C96.857483,177.603882,96.857483,177.603882,96.857483,177.603882L96.857483,175.103851C96.857483,175.103851,96.857483,175.103851,96.857483,175.103851L101.857483,175.103851C101.857483,175.103851,101.857483,175.103851,101.857483,175.103851z"
     id="path152" />
  <circle
     transform="translate(78.811005,117.684273)"
     style="stroke:#0000ff;stroke-width:0.05mm;fill:none"
     r="0.63755"
     cx="0"
     cy="0"
     id="circle154" />
  <path
     transform="matrix(-0,0.798778,-0.844744,-0,197.303619,-98.800697)"
     style="stroke:#0000ff;stroke-width:0.05mm;fill:none"
     d="M268.764404,121.24231L270.521637,119.198181"
     id="path156" />
  <rect
     transform="matrix(0.844744,0,0,0.798778,95.748505,116.584198)"
     style="stroke:#0000ff;stroke-width:0.05mm;fill:none"
     x="-2.632156"
     y="-2.625698"
     width="5.264313"
     height="5.251396"
     id="rect158" />
  <circle
     transform="matrix(0.844744,0,0,0.798778,95.748505,116.584198)"
     style="stroke:#0000ff;stroke-width:0.05mm;fill:none"
     r="1.846878"
     cx="0"
     cy="0"
     id="circle160" />
  <path
     transform="matrix(0.844744,0,0,0.798778,-132.047699,20.516771)"
     style="stroke:#0000ff;stroke-width:0.05mm;fill:none"
     d="M268.764404,121.24231L270.521637,119.198181"
     id="path162" />
  <rect
     transform="translate(75.367004,117.701271)"
     style="stroke:#0000ff;stroke-width:0.05mm;fill:none"
     x="-1.001861"
     y="-3.189796"
     width="2.003723"
     height="6.379593"
     id="rect164" />
  <circle
     transform="translate(108.811996,117.764275)"
     style="stroke:#0000ff;stroke-width:0.05mm;fill:none"
     r="1.5"
     cx="0"
     cy="0"
     id="circle166" />
  <circle
     transform="translate(81.923004,117.684273)"
     style="stroke:#0000ff;stroke-width:0.05mm;fill:none"
     r="0.63755"
     cx="0"
     cy="0"
     id="circle168" />
  <rect
     transform="translate(91.487991,117.701271)"
     style="stroke:#0000ff;stroke-width:0.05mm;fill:none"
     x="-1.001861"
     y="-3.189796"
     width="2.003723"
     height="6.379593"
     id="rect170" />
  <rect
     transform="translate(90.057999,135.979263)"
     style="stroke:#0000ff;stroke-width:0.05mm;fill:none"
     x="-21.499977"
     y="-21.499971"
     width="42.999954"
     height="42.999943"
     id="rect172" />
  <rect
     transform="translate(83.479996,117.684273)"
     style="stroke:#0000ff;stroke-width:0.05mm;fill:none"
     x="-9.596256"
     y="-3.189796"
     width="19.192513"
     height="6.379593"
     id="rect174" />
  <path
     transform="matrix(0.798778,0,0,0.844744,-144.16748,27.939972)"
     style="stroke:#0000ff;stroke-width:0.05mm;fill:none"
     d="M268.764404,121.24231L270.521637,119.198181"
     id="path176" />
  <rect
     transform="matrix(-0,-0.844744,0.798778,-0,71.21743,129.495087)"
     style="stroke:#0000ff;stroke-width:0.05mm;fill:none"
     x="-2.632156"
     y="-2.625698"
     width="5.264313"
     height="5.251396"
     id="rect178" />
  <circle
     transform="matrix(-0,-0.844744,0.798778,-0,71.21743,129.495087)"
     style="stroke:#0000ff;stroke-width:0.05mm;fill:none"
     r="1.846878"
     cx="0"
     cy="0"
     id="circle180" />
  <path
     transform="matrix(-0,-0.844744,0.798778,-0,-24.849991,357.29129)"
     style="stroke:#0000ff;stroke-width:0.05mm;fill:none"
     d="M268.764404,121.24231L270.521637,119.198181"
     id="path182" />
  <path
     transform="matrix(0.798778,0,0,0.844744,-144.162476,23.487976)"
     style="stroke:#0000ff;stroke-width:0.05mm;fill:none"
     d="M268.764404,121.24231L270.521637,119.198181"
     id="path184" />
  <rect
     transform="matrix(-0,-0.844744,0.798778,-0,71.22242,125.043091)"
     style="stroke:#0000ff;stroke-width:0.05mm;fill:none"
     x="-2.632156"
     y="-2.625698"
     width="5.264313"
     height="5.251396"
     id="rect186" />
  <circle
     transform="matrix(-0,-0.844744,0.798778,-0,71.22242,125.043091)"
     style="stroke:#0000ff;stroke-width:0.05mm;fill:none"
     r="1.846878"
     cx="0"
     cy="0"
     id="circle188" />
  <path
     transform="matrix(-0,-0.844744,0.798778,-0,-24.845001,352.839294)"
     style="stroke:#0000ff;stroke-width:0.05mm;fill:none"
     d="M268.764404,121.24231L270.521637,119.198181"
     id="path190" />
  <path
     transform="matrix(-0,0.798778,-0.844744,-0,206.211914,-98.811394)"
     style="stroke:#0000ff;stroke-width:0.05mm;fill:none"
     d="M268.764404,121.24231L270.521637,119.198181"
     id="path192" />
  <rect
     transform="matrix(0.844744,0,0,0.798778,104.656807,116.573502)"
     style="stroke:#0000ff;stroke-width:0.05mm;fill:none"
     x="-2.632156"
     y="-2.625698"
     width="5.264313"
     height="5.251396"
     id="rect194" />
  <circle
     transform="matrix(0.844744,0,0,0.798778,104.656807,116.573502)"
     style="stroke:#0000ff;stroke-width:0.05mm;fill:none"
     r="1.846878"
     cx="0"
     cy="0"
     id="circle196" />
  <path
     transform="matrix(0.844744,0,0,0.798778,-123.139397,20.506071)"
     style="stroke:#0000ff;stroke-width:0.05mm;fill:none"
     d="M268.764404,121.24231L270.521637,119.198181"
     id="path198" />
  <circle
     transform="translate(108.811996,154.494263)"
     style="stroke:#0000ff;stroke-width:0.05mm;fill:none"
     r="1.5"
     cx="0"
     cy="0"
     id="circle200" />
  <circle
     transform="translate(88.146988,117.684273)"
     style="stroke:#0000ff;stroke-width:0.05mm;fill:none"
     r="0.63755"
     cx="0"
     cy="0"
     id="circle202" />
  <circle
     transform="translate(71.664001,154.494263)"
     style="stroke:#0000ff;stroke-width:0.05mm;fill:none"
     r="1.5"
     cx="0"
     cy="0"
     id="circle204" />
  <rect
     transform="matrix(-0,-1,1,-0,65.190002,131.310272)"
     style="stroke:#00e000;stroke-width:0.05mm;fill:none"
     x="-3.718354"
     y="-3.834007"
     width="7.436707"
     height="7.668014"
     id="rect206" />
  <circle
     transform="translate(85.034988,117.684273)"
     style="stroke:#0000ff;stroke-width:0.05mm;fill:none"
     r="0.63755"
     cx="0"
     cy="0"
     id="circle208" />
  <path
     transform="matrix(-0,0.798778,-0.844744,-0,201.755127,-98.795898)"
     style="stroke:#0000ff;stroke-width:0.05mm;fill:none"
     d="M268.764404,121.24231L270.521637,119.198181"
     id="path210" />
  <rect
     transform="matrix(0.844744,0,0,0.798778,100.200005,116.588997)"
     style="stroke:#0000ff;stroke-width:0.05mm;fill:none"
     x="-2.632156"
     y="-2.625698"
     width="5.264313"
     height="5.251396"
     id="rect212" />
  <circle
     transform="matrix(0.844744,0,0,0.798778,100.200005,116.588997)"
     style="stroke:#0000ff;stroke-width:0.05mm;fill:none"
     r="1.846878"
     cx="0"
     cy="0"
     id="circle214" />
  <path
     transform="matrix(0.844744,0,0,0.798778,-127.596199,20.52157)"
     style="stroke:#0000ff;stroke-width:0.05mm;fill:none"
     d="M268.764404,121.24231L270.521637,119.198181"
     id="path216" />
  <path
     transform="matrix(0.798778,0,0,0.844744,-106.58419,27.939362)"
     style="stroke:#0000ff;stroke-width:0.05mm;fill:none"
     d="M268.764404,121.24231L270.521637,119.198181"
     id="path218" />
  <rect
     transform="matrix(-0,-0.844744,0.798778,-0,108.800713,129.494476)"
     style="stroke:#0000ff;stroke-width:0.05mm;fill:none"
     x="-2.632156"
     y="-2.625698"
     width="5.264313"
     height="5.251396"
     id="rect220" />
  <circle
     transform="matrix(-0,-0.844744,0.798778,-0,108.800713,129.494476)"
     style="stroke:#0000ff;stroke-width:0.05mm;fill:none"
     r="1.846878"
     cx="0"
     cy="0"
     id="circle222" />
  <path
     transform="matrix(-0,-0.844744,0.798778,-0,12.733292,357.29068)"
     style="stroke:#0000ff;stroke-width:0.05mm;fill:none"
     d="M268.764404,121.24231L270.521637,119.198181"
     id="path224" />
  <path
     transform="matrix(0.798778,0,0,0.844744,-106.579185,23.487366)"
     style="stroke:#0000ff;stroke-width:0.05mm;fill:none"
     d="M268.764404,121.24231L270.521637,119.198181"
     id="path226" />
  <rect
     transform="matrix(-0,-0.844744,0.798778,-0,108.805717,125.04248)"
     style="stroke:#0000ff;stroke-width:0.05mm;fill:none"
     x="-2.632156"
     y="-2.625698"
     width="5.264313"
     height="5.251396"
     id="rect228" />
  <circle
     transform="matrix(-0,-0.844744,0.798778,-0,108.805717,125.04248)"
     style="stroke:#0000ff;stroke-width:0.05mm;fill:none"
     r="1.846878"
     cx="0"
     cy="0"
     id="circle230" />
  <path
     transform="matrix(-0,-0.844744,0.798778,-0,12.738297,352.838684)"
     style="stroke:#0000ff;stroke-width:0.05mm;fill:none"
     d="M268.764404,121.24231L270.521637,119.198181"
     id="path232" />
  <circle
     transform="translate(71.664001,117.764275)"
     style="stroke:#0000ff;stroke-width:0.05mm;fill:none"
     r="1.5"
     cx="0"
     cy="0"
     id="circle234" />
  <circle
     transform="translate(108.541,22.690201)"
     style="stroke:#000000;stroke-width:0.05mm;fill:none"
     r="2.5"
     cx="0"
     cy="0"
     id="circle236" />
  <circle
     transform="translate(72.540001,22.690201)"
     style="stroke:#000000;stroke-width:0.05mm;fill:none"
     r="2.5"
     cx="0"
     cy="0"
     id="circle238" />
  <circle
     transform="translate(72.483719,50.943211)"
     style="stroke:#000000;stroke-width:0.05mm;fill:none"
     r="2.5"
     cx="0"
     cy="0"
     id="circle240" />
  <circle
     transform="translate(108.484718,50.943211)"
     style="stroke:#000000;stroke-width:0.05mm;fill:none"
     r="2.5"
     cx="0"
     cy="0"
     id="circle242" />
  <text
     xml:space="preserve"
     style="font-size:4.93889px;line-height:1.25;font-family:sans-serif;stroke-width:0.264583"
     x="139.90173"
     y="127.54983"
     id="text3413"><tspan
       sodipodi:role="line"
       id="tspan3411"
       style="font-size:4.93889px;stroke-width:0.264583"
       x="139.90173"
       y="127.54983">oben</tspan></text>
  <text
     xml:space="preserve"
     style="font-size:4.93889px;line-height:1.25;font-family:sans-serif;stroke-width:0.264583"
     x="29.274992"
     y="127.75362"
     id="text3413-7"><tspan
       sodipodi:role="line"
       id="tspan3411-1"
       style="font-size:4.93889px;stroke-width:0.264583"
       x="29.274992"
       y="127.75362">oben</tspan></text>
  <path
     style="fill:none;stroke:#fd0000;stroke-width:0.496494;stroke-linecap:round;stroke-linejoin:round;stroke-opacity:1"
     d="m 43.688767,125.15634 25.765597,-0.26225"
     id="path8619"
     sodipodi:nodetypes="cc" />
  <path
     style="fill:#fd0000;fill-opacity:1;stroke:#ff0000;stroke-width:0.498929;stroke-linecap:round;stroke-linejoin:round;stroke-opacity:1"
     d="m 110.61141,125.21068 26.26282,-0.25981"
     id="path8619-3"
     sodipodi:nodetypes="cc" />
  <path
     style="fill:#fd0000;fill-opacity:1;stroke:#010000;stroke-width:0.498929;stroke-linecap:round;stroke-linejoin:round;stroke-opacity:1"
     d="m 110.5327,129.59025 26.26282,-0.25981"
     id="path8619-3-5"
     sodipodi:nodetypes="cc" />
  <path
     style="fill:#fd0000;fill-opacity:1;stroke:#010000;stroke-width:0.49563;stroke-linecap:round;stroke-linejoin:round;stroke-opacity:1"
     d="M 43.860693,129.5919 69.4524,129.32879"
     id="path8619-3-5-3"
     sodipodi:nodetypes="cc" />
  <text
     xml:space="preserve"
     style="font-size:3.52778px;line-height:1.25;font-family:sans-serif;stroke-width:0.264583"
     x="-128.76799"
     y="89.305946"
     id="text9728"
     transform="rotate(-90)"><tspan
       sodipodi:role="line"
       id="tspan9726"
       style="font-size:3.52778px;stroke-width:0.264583"
       x="-128.76799"
       y="89.305946">C16</tspan></text>
  <text
     xml:space="preserve"
     style="font-size:3.52778px;line-height:1.25;font-family:sans-serif;stroke-width:0.264583"
     x="-128.50633"
     y="82.937782"
     id="text9728-0"
     transform="rotate(-90)"><tspan
       sodipodi:role="line"
       id="tspan9726-7"
       style="font-size:3.52778px;stroke-width:0.264583"
       x="-128.50633"
       y="82.937782">C17</tspan></text>
  <path
     style="fill:none;fill-opacity:1;stroke:#fb0000;stroke-width:0.499999;stroke-linecap:round;stroke-linejoin:round;stroke-opacity:1"
     d="m 104.68425,114.91234 v -2.89033 h 23.70073 v 57.22859 h -17.53469"
     id="path15065" />
  <path
     style="fill:none;fill-opacity:1;stroke:#040000;stroke-width:0.490341;stroke-linecap:round;stroke-linejoin:round;stroke-opacity:1"
     d="m 101.21102,114.13724 v -3.66157 h 28.7203 v 73.61681 h -18.52923"
     id="path15199" />
  <path
     style="fill:none;fill-opacity:1;stroke:#fefd00;stroke-width:0.52163;stroke-linecap:round;stroke-linejoin:round;stroke-opacity:1"
     d="m 88.185265,109.32238 v 7.7597"
     id="path15347" />
  <path
     style="fill:none;fill-opacity:1;stroke:#000000;stroke-width:0.499999;stroke-linecap:round;stroke-linejoin:round;stroke-opacity:0.467991"
     d="m 81.971048,117.34504 v -7.90025"
     id="path15726" />
  <path
     style="fill:none;fill-opacity:1;stroke:#000000;stroke-width:0.499999;stroke-linecap:round;stroke-linejoin:round;stroke-opacity:0.99117"
     d="m 99.67434,114.33427 v -5.2026"
     id="path16336" />
  <path
     style="fill:#000000;fill-opacity:0.392936;stroke:#000000;stroke-width:0.5;stroke-linecap:round;stroke-linejoin:round;stroke-miterlimit:4;stroke-dasharray:none;stroke-opacity:0.466667"
     d="m 81.076941,110.2085 0.963445,-2.69765 0.818927,2.69764 z"
     id="path16649"
     sodipodi:nodetypes="cccc" />
  <path
     style="fill:#fefd00;fill-opacity:1;stroke:#fefd00;stroke-width:0.499999;stroke-linecap:round;stroke-linejoin:round;stroke-opacity:1"
     d="m 87.269991,110.04692 0.963445,-2.69765 0.818927,2.69764 z"
     id="path16649-4"
     sodipodi:nodetypes="cccc" />
  <path
     style="fill:#000000;fill-opacity:1;stroke:#000000;stroke-width:0.499999;stroke-linecap:round;stroke-linejoin:round;stroke-opacity:1"
     d="m 98.73498,109.80606 0.963445,-2.69765 0.818935,2.69764 z"
     id="path16649-7"
     sodipodi:nodetypes="cccc" />
  <text
     xml:space="preserve"
     style="font-size:4.67465px;line-height:1.25;font-family:sans-serif;stroke-width:0.350599"
     x="81.700783"
     y="105.582"
     id="text26394"
     transform="scale(0.99869129,1.0013104)"><tspan
       sodipodi:role="line"
       id="tspan26392"
       style="font-size:4.67465px;stroke-width:0.350599"
       x="81.700783"
       y="105.582">Calliope</tspan></text>
</svg>
